<svg xmlns="http://www.w3.org/2000/svg" viewBox="0 0 800 500" role="img" aria-label="Orcasound exhibit placeholder">
  <rect width="800" height="500" fill="#0f3a44"/>
  <g fill="none" stroke="#5fb3c4" stroke-width="3" opacity="0.85">
    <path d="M0 250 Q 50 180 100 250 T 200 250 T 300 250 T 400 250 T 500 250 T 600 250 T 700 250 T 800 250"/>
    <path d="M0 250 Q 50 320 100 250 T 200 250 T 300 250 T 400 250 T 500 250 T 600 250 T 700 250 T 800 250" opacity="0.5"/>
    <path d="M0 250 Q 25 120 50 250 T 100 250 T 150 250 T 200 250 T 250 250 T 300 250 T 350 250 T 400 250 T 450 250 T 500 250 T 550 250 T 600 250 T 650 250 T 700 250 T 750 250 T 800 250" opacity="0.3"/>
  </g>
  <path d="M330 360 q 20 -28 70 -28 q 70 0 90 26 q -14 16 -50 16 q 18 18 40 18 q -34 18 -78 6 q -50 -14 -72 -38 z" fill="#0a2a31"/>
  <circle cx="360" cy="350" r="4" fill="#5fb3c4"/>
  <text x="400" y="450" text-anchor="middle" font-family="Inter, sans-serif" font-size="22" fill="#9fd2dc" letter-spacing="2">SOUND OF THE SALISH SEA</text>
</svg>
