<svg xmlns="http://www.w3.org/2000/svg" viewBox="0 0 800 500" role="img" aria-label="Wikipedia dispute classification placeholder">
  <rect width="800" height="500" fill="#f4f2eb"/>
  <g font-family="Inter, sans-serif">
    <rect x="120" y="90" width="380" height="70" rx="8" fill="#ffffff" stroke="#d9d5c8"/>
    <circle cx="155" cy="125" r="14" fill="#c9d8e8"/>
    <rect x="185" y="110" width="270" height="9" rx="4" fill="#cfcabc"/>
    <rect x="185" y="130" width="180" height="9" rx="4" fill="#e0dccf"/>

    <rect x="300" y="200" width="380" height="70" rx="8" fill="#ffffff" stroke="#d9d5c8"/>
    <circle cx="335" cy="235" r="14" fill="#e8d3c9"/>
    <rect x="365" y="220" width="270" height="9" rx="4" fill="#cfcabc"/>
    <rect x="365" y="240" width="210" height="9" rx="4" fill="#e0dccf"/>

    <rect x="120" y="310" width="380" height="70" rx="8" fill="#ffffff" stroke="#d9d5c8"/>
    <circle cx="155" cy="345" r="14" fill="#cfe3d2"/>
    <rect x="185" y="330" width="270" height="9" rx="4" fill="#cfcabc"/>
    <rect x="185" y="350" width="150" height="9" rx="4" fill="#e0dccf"/>

    <g transform="translate(600,360)">
      <rect x="-10" y="-10" width="150" height="60" rx="8" fill="#6b3f2b"/>
      <text x="65" y="18" text-anchor="middle" font-size="15" fill="#f4ecdf">POLICY</text>
      <text x="65" y="38" text-anchor="middle" font-size="13" fill="#d9c4ad">+ TOPIC</text>
    </g>
    <path d="M500 345 Q 560 370 600 380" stroke="#6b3f2b" stroke-width="2.5" fill="none"/>
  </g>
  <text x="400" y="465" text-anchor="middle" font-family="Inter, sans-serif" font-size="20" fill="#8a877f" letter-spacing="2">TALK-PAGE DISPUTE CLASSIFIER</text>
</svg>
